<svg width="38" height="38" viewBox="0 0 38 38" fill="none" xmlns="http://www.w3.org/2000/svg">
<mask id="path-1-inside-1_12_1128" fill="white">
<path d="M19 -1.08816e-07C13.9609 -7.99561e-08 9.12815 2.00178 5.56496 5.56497C2.00177 9.12816 -7.63946e-06 13.9609 -6.33876e-06 19C-5.03806e-06 24.0391 2.00178 28.8718 5.56497 32.435C9.12816 35.9982 13.9609 38 19 38L19 19L19 -1.08816e-07Z"/>
</mask>
<path d="M19 -1.08816e-07C13.9609 -7.99561e-08 9.12815 2.00178 5.56496 5.56497C2.00177 9.12816 -7.63946e-06 13.9609 -6.33876e-06 19C-5.03806e-06 24.0391 2.00178 28.8718 5.56497 32.435C9.12816 35.9982 13.9609 38 19 38L19 19L19 -1.08816e-07Z" fill="white" stroke="white" stroke-width="23.5726" mask="url(#path-1-inside-1_12_1128)"/>
<mask id="path-2-inside-2_12_1128" fill="white">
<path d="M18.9036 5.59392C22.4847 5.59392 25.9191 7.0165 28.4513 9.54872C30.9835 12.0809 32.4061 15.5154 32.4061 19.0965C32.4061 22.6776 30.9835 26.112 28.4513 28.6442C25.9191 31.1764 22.4847 32.599 18.9036 32.599L18.9036 19.0965L18.9036 5.59392Z"/>
</mask>
<path d="M18.9036 5.59392C22.4847 5.59392 25.9191 7.0165 28.4513 9.54872C30.9835 12.0809 32.4061 15.5154 32.4061 19.0965C32.4061 22.6776 30.9835 26.112 28.4513 28.6442C25.9191 31.1764 22.4847 32.599 18.9036 32.599L18.9036 19.0965L18.9036 5.59392Z" fill="white" stroke="white" stroke-width="23.5726" mask="url(#path-2-inside-2_12_1128)"/>
<path d="M18.9036 9.83758C21.3592 9.83758 23.7142 10.8131 25.4506 12.5494C27.187 14.2858 28.1625 16.6409 28.1625 19.0965C28.1625 21.5521 27.187 23.9071 25.4506 25.6435C23.7142 27.3799 21.3592 28.3553 18.9036 28.3553" stroke="#1E1E1E" stroke-width="3"/>
<path d="M18.9036 9.83758C21.3592 9.83758 23.7142 10.8131 25.4506 12.5494C27.187 14.2858 28.1625 16.6409 28.1625 19.0965C28.1625 21.5521 27.187 23.9071 25.4506 25.6435C23.7142 27.3799 21.3592 28.3553 18.9036 28.3553" stroke="#1E1E1E" stroke-width="3"/>
<path d="M18.9035 23.9188C17.6246 23.9188 16.398 23.4006 15.4936 22.4781C14.5892 21.5557 14.0812 20.3046 14.0812 19C14.0812 17.6955 14.5892 16.4444 15.4936 15.5219C16.398 14.5995 17.6246 14.0812 18.9035 14.0812" stroke="#1E1E1E" stroke-width="11.7863"/>
<mask id="path-5-inside-3_12_1128" fill="white">
<path d="M20.8697 17.3233C20.3994 16.853 19.7616 16.5888 19.0965 16.5888L19.0965 21.6041C19.7616 21.6041 20.3994 21.3399 20.8697 20.8696C21.3399 20.3993 21.6041 19.7615 21.6041 19.0964C21.6041 18.4314 21.3399 17.7936 20.8697 17.3233Z"/>
</mask>
<path d="M20.8697 17.3233C20.3994 16.853 19.7616 16.5888 19.0965 16.5888L19.0965 21.6041C19.7616 21.6041 20.3994 21.3399 20.8697 20.8696C21.3399 20.3993 21.6041 19.7615 21.6041 19.0964C21.6041 18.4314 21.3399 17.7936 20.8697 17.3233Z" fill="#1E1E1E"/>
<path d="M19.0965 16.5888L7.31019 16.5888L7.31019 4.80251L19.0965 4.80251L19.0965 16.5888ZM20.8697 17.3233L29.2038 8.98911L29.2039 8.98911L20.8697 17.3233ZM20.8697 20.8696L12.5355 12.5354L12.5355 12.5354L20.8697 20.8696ZM19.0965 21.6041L19.0965 33.3904L7.31019 33.3904L7.31019 21.6041L19.0965 21.6041ZM19.0965 4.80251C22.8875 4.80251 26.5232 6.30848 29.2038 8.98911L12.5355 25.6575C14.2756 27.3976 16.6356 28.3752 19.0965 28.3752L19.0965 4.80251ZM29.2039 8.98911C31.8845 11.6697 33.3905 15.3055 33.3905 19.0964L9.8178 19.0964C9.8178 21.5573 10.7954 23.9174 12.5355 25.6575L29.2039 8.98911ZM33.3905 19.0964C33.3905 22.8874 31.8845 26.5232 29.2039 29.2038L12.5355 12.5354C10.7954 14.2755 9.8178 16.6356 9.8178 19.0964L33.3905 19.0964ZM29.2039 29.2038C26.5232 31.8844 22.8875 33.3904 19.0965 33.3904L19.0965 9.81774C16.6356 9.81774 14.2756 10.7953 12.5355 12.5354L29.2039 29.2038ZM7.31019 21.6041L7.31019 16.5888L30.8828 16.5888L30.8828 21.6041L7.31019 21.6041Z" fill="#1E1E1E" mask="url(#path-5-inside-3_12_1128)"/>
</svg>
